<svg width="121" height="96" viewBox="0 0 121 96" fill="none" xmlns="http://www.w3.org/2000/svg">
<g filter="url(#filter0_f)">
<path d="M88.9966 82.9658C88.6773 89.059 74.6845 93.2787 57.7428 92.3909C40.8012 91.503 27.3261 85.8437 27.6454 79.7505C27.9648 73.6573 41.9576 69.4376 58.8992 70.3254C75.8409 71.2133 89.316 76.8726 88.9966 82.9658Z" fill="#FFBB85"/>
</g>
<g style="mix-blend-mode:darken">
<path d="M118.79 28.1064C118.693 29.9594 117.08 31.7093 114.079 33.2662C111.095 34.8149 106.809 36.1336 101.526 37.1557C90.9628 39.1993 76.4619 40.048 60.5294 39.213C44.5969 38.378 30.2641 36.0182 19.9726 32.8817C14.8251 31.3129 10.7009 29.5535 7.89433 27.7012C5.07299 25.8392 3.65136 23.9303 3.74848 22.0773C3.84559 20.2242 5.45896 18.4743 8.45948 16.9174C11.4443 15.3687 15.7298 14.05 21.0131 13.0279C31.5761 10.9844 46.077 10.1356 62.0095 10.9706C77.9421 11.8056 92.2748 14.1654 102.566 17.3019C107.714 18.8707 111.838 20.6301 114.645 22.4824C117.466 24.3444 118.888 26.2533 118.79 28.1064Z" fill="#F0F0EB"/>
<path d="M118.79 28.1064C118.693 29.9594 117.08 31.7093 114.079 33.2662C111.095 34.8149 106.809 36.1336 101.526 37.1557C90.9628 39.1993 76.4619 40.048 60.5294 39.213C44.5969 38.378 30.2641 36.0182 19.9726 32.8817C14.8251 31.3129 10.7009 29.5535 7.89433 27.7012C5.07299 25.8392 3.65136 23.9303 3.74848 22.0773C3.84559 20.2242 5.45896 18.4743 8.45948 16.9174C11.4443 15.3687 15.7298 14.05 21.0131 13.0279C31.5761 10.9844 46.077 10.1356 62.0095 10.9706C77.9421 11.8056 92.2748 14.1654 102.566 17.3019C107.714 18.8707 111.838 20.6301 114.645 22.4824C117.466 24.3444 118.888 26.2533 118.79 28.1064Z" stroke="black" stroke-width="0.443263"/>
</g>
<mask id="path-3-inside-1" fill="white">
<path fill-rule="evenodd" clip-rule="evenodd" d="M55.9922 2.68905C29.5831 1.30501 9.55703 27.8459 8.77782 42.7142C8.75489 43.1517 8.75213 43.5794 8.76918 43.9975C8.72288 44.1511 8.69539 44.3066 8.68714 44.4639C8.67111 44.7698 8.72814 45.0763 8.85516 45.3826C8.7797 45.4436 8.70443 45.5052 8.62934 45.5673C7.80867 61.2265 24.5932 86.2307 56.453 87.9004C87.5629 89.5308 110.888 67.7508 112.733 52.1453C112.872 51.7212 112.991 51.2824 113.091 50.8284C113.244 50.5423 113.329 50.2489 113.345 49.9488C113.353 49.8027 113.344 49.6565 113.318 49.5103C113.373 49.0853 113.412 48.6484 113.436 48.1991C110.222 23.6559 91.4066 19.7883 76.168 16.6558C64.8367 14.3265 55.483 12.4038 55.9922 2.68905Z"/>
</mask>
<path fill-rule="evenodd" clip-rule="evenodd" d="M55.9922 2.68905C29.5831 1.30501 9.55703 27.8459 8.77782 42.7142C8.75489 43.1517 8.75213 43.5794 8.76918 43.9975C8.72288 44.1511 8.69539 44.3066 8.68714 44.4639C8.67111 44.7698 8.72814 45.0763 8.85516 45.3826C8.7797 45.4436 8.70443 45.5052 8.62934 45.5673C7.80867 61.2265 24.5932 86.2307 56.453 87.9004C87.5629 89.5308 110.888 67.7508 112.733 52.1453C112.872 51.7212 112.991 51.2824 113.091 50.8284C113.244 50.5423 113.329 50.2489 113.345 49.9488C113.353 49.8027 113.344 49.6565 113.318 49.5103C113.373 49.0853 113.412 48.6484 113.436 48.1991C110.222 23.6559 91.4066 19.7883 76.168 16.6558C64.8367 14.3265 55.483 12.4038 55.9922 2.68905Z" fill="#FFD8B4"/>
<path d="M8.77782 42.7142L8.33516 42.691L8.77782 42.7142ZM55.9922 2.68905L56.4348 2.71224L56.458 2.26959L56.0154 2.24639L55.9922 2.68905ZM8.76918 43.9975L9.19357 44.1255L9.21512 44.054L9.21208 43.9794L8.76918 43.9975ZM8.85516 45.3826L9.13393 45.7272L9.39153 45.5189L9.26462 45.2128L8.85516 45.3826ZM8.62934 45.5673L8.34689 45.2257L8.19687 45.3497L8.18668 45.5441L8.62934 45.5673ZM112.733 52.1453L112.311 52.007L112.298 52.0492L112.292 52.0933L112.733 52.1453ZM113.091 50.8284L112.7 50.6197L112.671 50.6737L112.658 50.7335L113.091 50.8284ZM113.318 49.5103L112.879 49.4537L112.87 49.52L112.882 49.5859L113.318 49.5103ZM113.436 48.1991L113.878 48.2223L113.881 48.1818L113.875 48.1415L113.436 48.1991ZM76.168 16.6558L76.2573 16.2216L76.2573 16.2216L76.168 16.6558ZM9.22047 42.7374C9.60238 35.4502 14.7282 25.1957 23.0857 16.922C31.4311 8.66024 42.9249 2.44809 55.969 3.1317L56.0154 2.24639C42.6504 1.54596 30.9266 7.91226 22.462 16.292C14.0093 24.6599 8.73246 35.11 8.33516 42.691L9.22047 42.7374ZM9.21208 43.9794C9.1956 43.5756 9.19824 43.1617 9.22047 42.7374L8.33516 42.691C8.31154 43.1418 8.30865 43.5832 8.32629 44.0156L9.21208 43.9794ZM8.3448 43.8695C8.28852 44.0562 8.25465 44.2468 8.24448 44.4407L9.12979 44.4871C9.13613 44.3663 9.15724 44.246 9.19357 44.1255L8.3448 43.8695ZM8.24448 44.4407C8.22464 44.8193 8.29606 45.1915 8.44571 45.5524L9.26462 45.2128C9.16023 44.9611 9.11757 44.7203 9.12979 44.4871L8.24448 44.4407ZM8.5764 45.038C8.49969 45.1 8.4232 45.1626 8.34689 45.2257L8.91178 45.9089C8.98566 45.8478 9.0597 45.7873 9.13393 45.7272L8.5764 45.038ZM8.18668 45.5441C7.76841 53.5251 11.828 63.8049 19.9662 72.2868C28.1166 80.7816 40.3823 87.5021 56.4298 88.3431L56.4762 87.4578C40.6639 86.6291 28.6074 80.0126 20.6059 71.673C12.592 63.3207 8.6696 53.2687 9.07199 45.5905L8.18668 45.5441ZM56.4298 88.3431C72.0954 89.1641 85.8025 84.0908 95.8269 76.8456C105.834 69.6127 112.23 60.1682 113.173 52.1973L112.292 52.0933C111.39 59.7279 105.201 68.9762 95.3076 76.1271C85.4308 83.2656 71.9205 88.2672 56.4762 87.4578L56.4298 88.3431ZM112.658 50.7335C112.561 51.1733 112.446 51.5976 112.311 52.007L113.154 52.2836C113.298 51.8447 113.421 51.3914 113.524 50.9234L112.658 50.7335ZM113.482 51.0372C113.662 50.6996 113.768 50.3434 113.788 49.972L112.902 49.9256C112.89 50.1545 112.825 50.3849 112.7 50.6197L113.482 51.0372ZM113.788 49.972C113.797 49.792 113.786 49.6127 113.755 49.4346L112.882 49.5859C112.901 49.7004 112.908 49.8134 112.902 49.9256L113.788 49.972ZM112.993 48.1759C112.97 48.6145 112.932 49.0403 112.879 49.4537L113.758 49.5668C113.814 49.1303 113.854 48.6822 113.878 48.2223L112.993 48.1759ZM76.0788 17.09C83.7131 18.6593 92.1441 20.3973 99.0745 24.7732C105.972 29.1282 111.406 36.1138 112.996 48.2566L113.875 48.1415C112.251 35.7412 106.671 28.5214 99.5478 24.0236C92.4575 19.5468 83.8615 17.7847 76.2573 16.2216L76.0788 17.09ZM55.5495 2.66585C55.4183 5.16991 55.9223 7.20441 56.9598 8.87594C57.9946 10.5433 59.5385 11.8146 61.4299 12.8323C65.191 14.8561 70.4364 15.9301 76.0788 17.09L76.2573 16.2216C70.5683 15.0522 65.4712 14.0002 61.85 12.0516C60.0501 11.0832 58.6429 9.90661 57.713 8.40844C56.7857 6.9144 56.3115 5.06554 56.4348 2.71224L55.5495 2.66585Z" fill="black" mask="url(#path-3-inside-1)"/>
<path d="M39.1542 60.3416C39.3458 56.6857 41.9673 53.8512 45.0094 54.0106C48.0516 54.1701 50.3624 57.263 50.1708 60.9189C49.9792 64.5749 47.8203 58.5831 44.7781 58.4237C41.736 58.2643 38.9626 63.9975 39.1542 60.3416Z" fill="#3E3E3E"/>
<path d="M68.5321 61.8821C68.7237 58.2262 71.3452 55.3917 74.3873 55.5512C77.4295 55.7106 79.7403 58.8035 79.5487 62.4595C79.3571 66.1154 77.1982 60.1237 74.1561 59.9642C71.1139 59.8048 68.3405 65.538 68.5321 61.8821Z" fill="#3E3E3E"/>
<path d="M118.79 28.1064C118.693 29.9594 117.08 31.7093 114.079 33.2662C111.095 34.8149 106.809 36.1336 101.526 37.1557C90.9628 39.1993 76.4619 40.048 60.5294 39.213C44.5969 38.378 30.2641 36.0182 19.9726 32.8817C14.8251 31.3129 10.7009 29.5535 7.89433 27.7012C5.07299 25.8392 3.65136 23.9303 3.74848 22.0773C3.84559 20.2242 5.45896 18.4743 8.45948 16.9174C11.4443 15.3687 15.7298 14.05 21.0131 13.0279C31.5761 10.9844 46.077 10.1356 62.0095 10.9706C77.9421 11.8056 92.2748 14.1654 102.566 17.3019C107.714 18.8707 111.838 20.6301 114.645 22.4824C117.466 24.3444 118.888 26.2533 118.79 28.1064Z" stroke="black" stroke-width="0.443263"/>
<path d="M117.994 30.2766C116.238 63.7891 89.3659 89.6228 57.974 87.9776C26.582 86.3324 2.55765 57.8314 4.31396 24.3188" stroke="#645959" stroke-width="0.443263"/>
<path d="M58.6831 14.0264C58.5554 16.4637 53.5936 18.1412 45.3719 17.7103C37.1502 17.2795 27.8001 16.3774 27.9278 13.9401C29.4835 10.1496 36.2908 7.7842 44.5125 8.21508C52.7342 8.64596 58.5211 8.48641 58.6831 14.0264Z" fill="#FFD8B4"/>
<g style="mix-blend-mode:darken">
<path fill-rule="evenodd" clip-rule="evenodd" d="M58.934 86.9226C90.326 88.5678 117.12 64.2161 118.781 32.5315C117.603 32.8689 116.464 33.2012 115.35 33.5264C102.574 37.2564 93.0598 40.0339 64.1848 38.5206C35.1252 36.9976 20.6596 31.9734 8.09558 27.6095C7.08718 27.2593 6.09104 26.9133 5.10059 26.5737C3.44007 58.2583 27.5421 85.2774 58.934 86.9226Z" fill="#F0F0F0"/>
</g>
<defs>
<filter id="filter0_f" x="25.2943" y="66.9447" width="66.0537" height="28.8268" filterUnits="userSpaceOnUse" color-interpolation-filters="sRGB">
<feFlood flood-opacity="0" result="BackgroundImageFix"/>
<feBlend mode="normal" in="SourceGraphic" in2="BackgroundImageFix" result="shape"/>
<feGaussianBlur stdDeviation="0.886526" result="effect1_foregroundBlur"/>
</filter>
</defs>
</svg>
