<svg width="371" height="336" viewBox="0 0 371 336" fill="none" xmlns="http://www.w3.org/2000/svg">
<path d="M48.5677 334.647C64.1329 300.809 89.1725 276.446 118.949 262.234C100.001 242.609 88.4958 215.539 88.4958 185.085C88.4958 178.994 89.1725 173.58 89.8493 168.167C98.647 135.006 127.747 122.148 137.898 117.41C139.252 116.734 140.605 116.057 140.605 116.057C143.989 113.35 160.908 108.613 166.322 107.259C171.059 105.906 177.15 105.906 177.827 105.906L177.15 106.582C174.443 109.289 168.352 115.38 173.766 123.501C177.827 129.592 187.978 130.945 200.836 132.299C210.987 133.652 223.845 134.329 236.027 139.066C265.127 149.218 285.429 168.843 286.783 187.115C286.106 217.569 273.925 245.316 254.299 264.265C282.722 279.153 306.409 303.516 321.297 336C351.751 300.132 370.7 252.76 370.7 200.65C371.376 89.6637 288.136 0.333008 185.947 0.333008C83.7585 0.333008 0.518555 89.6637 0.518555 199.974C0.518555 252.083 18.7907 298.779 48.5677 334.647Z" fill="#FA9332"/>
</svg>
