<svg width="135" height="135" viewBox="0 0 135 135" fill="none" xmlns="http://www.w3.org/2000/svg">
<rect width="135" height="135" rx="5.08" fill="#FFB800"/>
<ellipse cx="39.1171" cy="71.6486" rx="4.06087" ry="7.50247" transform="rotate(169.452 39.1171 71.6486)" fill="white" fill-opacity="0.25"/>
<g filter="url(#filter0_d)">
<path fill-rule="evenodd" clip-rule="evenodd" d="M76.8834 17.6808L74.1844 17.9495L74.3976 20.0905C74.8422 20.3281 75.1638 20.7759 75.2175 21.3152C75.3031 22.1744 74.6759 22.9403 73.8167 23.0258C72.9575 23.1114 72.1916 22.4842 72.1061 21.625C72.0524 21.0855 72.2797 20.5827 72.669 20.2622L72.4559 18.1216L69.7535 18.3907L69.9666 20.5317C70.4112 20.7693 70.7329 21.2172 70.7866 21.7564C70.8722 22.6156 70.245 23.3815 69.3858 23.4671C68.5266 23.5526 67.7607 22.9254 67.6752 22.0662C67.6214 21.5267 67.8487 21.024 68.238 20.7034L68.0249 18.5628L65.3314 18.831L65.5447 20.9732C65.9881 21.2111 66.3087 21.6584 66.3623 22.1967C66.4479 23.0559 65.8207 23.8218 64.9615 23.9073C64.1023 23.9928 63.3364 23.3657 63.2508 22.5065C63.197 21.966 63.4252 21.4625 63.8158 21.142L63.6028 19.0031L60.8347 19.2787L61.0479 21.4202C61.4925 21.6578 61.8142 22.1056 61.8679 22.6449C61.9535 23.5041 61.3263 24.27 60.4671 24.3555C59.6079 24.4411 58.842 23.8139 58.7565 22.9547C58.7027 22.4152 58.93 21.9125 59.3193 21.5919L59.1061 19.4508L56.3387 19.7264L56.5518 21.8669C56.9967 22.1045 57.3186 22.5525 57.3723 23.092C57.4579 23.9512 56.8307 24.7171 55.9715 24.8026C55.1123 24.8882 54.3464 24.261 54.2609 23.4018C54.2072 22.8625 54.4342 22.36 54.8233 22.0394L54.6101 19.8985L51.8477 20.1735L52.0609 22.3152C52.5056 22.5528 52.8274 23.0007 52.8811 23.5401C52.9666 24.3993 52.3395 25.1651 51.4803 25.2507C50.6211 25.3362 49.8552 24.7091 49.7696 23.8499C49.7159 23.3104 49.9431 22.8078 50.3323 22.4872L50.1191 20.3456L47.349 20.6215L47.5621 22.7618C48.0069 22.9993 48.3288 23.4473 48.3826 23.9868C48.4681 24.846 47.8409 25.6119 46.9817 25.6974C46.1225 25.783 45.3567 25.1558 45.2711 24.2966C45.2174 23.7573 45.4445 23.2548 45.8335 22.9342L45.6204 20.7936L42.8575 21.0687L43.0707 23.2097C43.5154 23.4473 43.8372 23.8952 43.8909 24.4345C43.9764 25.2937 43.3492 26.0596 42.49 26.1452C41.6308 26.2307 40.865 25.6035 40.7794 24.7443C40.7257 24.2049 40.9529 23.7023 41.3421 23.3817L41.1289 21.2408L38.3609 21.5164L38.574 23.6571C39.0189 23.8946 39.3408 24.3426 39.3945 24.8821C39.4801 25.7413 38.8529 26.5072 37.9937 26.5927C37.1345 26.6783 36.3686 26.0511 36.2831 25.1919C36.2294 24.6526 36.4565 24.1501 36.8455 23.8295L36.6323 21.6885L33.8672 21.9638L34.0804 24.1042C34.5255 24.3417 34.8476 24.7898 34.9014 25.3295C34.9869 26.1887 34.3597 26.9546 33.5005 27.0402C32.6413 27.1257 31.8755 26.4985 31.7899 25.6393C31.7362 25.1002 31.9631 24.5979 32.3519 24.2773L32.1387 22.1359L29.3732 22.4113L29.5863 24.5516C30.0313 24.7891 30.3534 25.2371 30.4071 25.7768C30.4926 26.636 29.8655 27.4019 29.0063 27.4874C28.1471 27.5729 27.3812 26.9458 27.2956 26.0866C27.242 25.5474 27.4689 25.045 27.8578 24.7244L27.6446 22.5834L22.8308 23.0627L30.0189 95.2558L83.8786 90.049C83.8786 90.049 85.0636 84.7378 85.3676 83.5968C85.6716 82.4558 87.3529 76.8061 87.3529 76.8061L81.2371 17.2473L78.612 17.5087L78.8251 19.649C79.2694 19.8867 79.5909 20.3344 79.6445 20.8735C79.7301 21.7327 79.1029 22.4986 78.2437 22.5841C77.3845 22.6697 76.6186 22.0425 76.5331 21.1833C76.4793 20.6435 76.7068 20.1406 77.0964 19.8201L76.8834 17.6808Z" fill="white"/>
</g>
<g filter="url(#filter1_d)">
<path d="M79.9082 84.0929L87.3531 76.6481L85.3678 84.0929L83.8788 90.0488L79.9082 84.0929Z" fill="white"/>
</g>
<line x1="29.2568" y1="39.6033" x2="76.9042" y2="35.6327" stroke="#D2D2D2" stroke-width="0.635"/>
<line x1="30.2495" y1="44.5669" x2="77.8969" y2="40.5963" stroke="#D2D2D2" stroke-width="0.635"/>
<line x1="30.2495" y1="49.5299" x2="77.8969" y2="45.5593" stroke="#D2D2D2" stroke-width="0.635"/>
<line x1="31.2419" y1="54.4928" x2="78.8893" y2="50.5222" stroke="#D2D2D2" stroke-width="0.635"/>
<line x1="32.2351" y1="59.4565" x2="79.8825" y2="55.4859" stroke="#D2D2D2" stroke-width="0.635"/>
<path d="M120.753 103.83C120.788 104.536 120.368 105.287 119.446 106.046C118.529 106.8 117.165 107.519 115.438 108.158C111.989 109.433 107.163 110.361 101.781 110.63C96.3988 110.898 91.5043 110.455 87.9451 109.529C86.1636 109.066 84.7341 108.486 83.747 107.827C82.7538 107.163 82.2615 106.458 82.2263 105.752C82.1911 105.046 82.6107 104.295 83.5329 103.536C84.4496 102.782 85.8142 102.063 87.5408 101.425C90.9903 100.149 95.8163 99.2212 101.198 98.9527C106.58 98.6842 111.475 99.1273 115.034 100.053C116.815 100.516 118.245 101.096 119.232 101.756C120.225 102.419 120.718 103.124 120.753 103.83Z" fill="#FFD8B4" stroke="black" stroke-width="0.616558"/>
<path d="M115.087 103.174C115.109 103.611 114.849 104.098 114.226 104.609C113.609 105.116 112.684 105.604 111.505 106.039C109.15 106.907 105.85 107.542 102.165 107.725C98.4801 107.909 95.133 107.607 92.7035 106.977C91.4868 106.661 90.5178 106.268 89.8533 105.825C89.1826 105.379 88.8754 104.92 88.8536 104.482C88.8318 104.045 89.0917 103.558 89.7146 103.046C90.3318 102.54 91.2569 102.052 92.4361 101.617C94.7909 100.748 98.0913 100.114 101.776 99.9304C105.461 99.7466 108.808 100.049 111.238 100.679C112.454 100.995 113.423 101.388 114.088 101.831C114.758 102.277 115.066 102.736 115.087 103.174Z" fill="#FFBB85" stroke="black" stroke-width="0.616558"/>
<ellipse cx="100.881" cy="104.693" rx="6.15394" ry="1.13362" transform="rotate(-2.85573 100.881 104.693)" fill="black" fill-opacity="0.15"/>
<g style="mix-blend-mode:darken">
<path d="M123.006 87.8127C122.99 87.9923 122.884 88.1936 122.623 88.4114C122.36 88.6298 121.967 88.843 121.439 89.0421C120.385 89.4397 118.862 89.756 116.971 89.9712C113.194 90.4011 108.012 90.4209 102.323 89.9243C96.635 89.4277 91.5347 88.5104 87.8891 87.4325C86.0638 86.8928 84.6189 86.3175 83.6496 85.7432C83.1642 85.4557 82.8137 85.1775 82.5933 84.917C82.3736 84.6572 82.3036 84.4405 82.3193 84.2609C82.335 84.0812 82.4415 83.8799 82.7029 83.6622C82.965 83.4438 83.3585 83.2305 83.8863 83.0314C84.9405 82.6339 86.4632 82.3176 88.3544 82.1023C92.1316 81.6724 97.3137 81.6527 103.002 82.1492C108.69 82.6458 113.791 83.5632 117.436 84.641C119.262 85.1807 120.707 85.7561 121.676 86.3303C122.161 86.6178 122.512 86.896 122.732 87.1565C122.952 87.4163 123.022 87.633 123.006 87.8127Z" fill="#F0F0EB"/>
<path d="M123.006 87.8127C122.99 87.9923 122.884 88.1936 122.623 88.4114C122.36 88.6298 121.967 88.843 121.439 89.0421C120.385 89.4397 118.862 89.756 116.971 89.9712C113.194 90.4011 108.012 90.4209 102.323 89.9243C96.635 89.4277 91.5347 88.5104 87.8891 87.4325C86.0638 86.8928 84.6189 86.3175 83.6496 85.7432C83.1642 85.4557 82.8137 85.1775 82.5933 84.917C82.3736 84.6572 82.3036 84.4405 82.3193 84.2609C82.335 84.0812 82.4415 83.8799 82.7029 83.6622C82.965 83.4438 83.3585 83.2305 83.8863 83.0314C84.9405 82.6339 86.4632 82.3176 88.3544 82.1023C92.1316 81.6724 97.3137 81.6527 103.002 82.1492C108.69 82.6458 113.791 83.5632 117.436 84.641C119.262 85.1807 120.707 85.7561 121.676 86.3303C122.161 86.6178 122.512 86.896 122.732 87.1565C122.952 87.4163 123.022 87.633 123.006 87.8127Z" stroke="black" stroke-width="0.616558"/>
</g>
<mask id="path-14-inside-1" fill="white">
<path fill-rule="evenodd" clip-rule="evenodd" d="M100.92 79.3809C91.4753 78.5565 84.1266 86.0234 83.7471 90.3718C83.7358 90.5009 83.7319 90.6275 83.7354 90.7514C83.7187 90.7944 83.7084 90.8382 83.7045 90.8828C83.6966 90.973 83.7153 91.0645 83.7594 91.157C83.7318 91.1738 83.7043 91.1907 83.6769 91.2079C83.2771 95.7876 89.1166 103.387 100.511 104.382C111.646 105.354 120.148 99.3246 120.902 94.7755C120.952 94.6572 120.997 94.5347 121.034 94.4077C121.092 94.325 121.126 94.2391 121.134 94.15C121.137 94.1059 121.135 94.0615 121.126 94.0167C121.148 93.8945 121.165 93.7686 121.176 93.639C120.192 86.3897 113.482 84.9572 108.048 83.797C104.008 82.9343 100.672 82.2221 100.92 79.3809Z"/>
</mask>
<path fill-rule="evenodd" clip-rule="evenodd" d="M100.92 79.3809C91.4753 78.5565 84.1266 86.0234 83.7471 90.3718C83.7358 90.5009 83.7319 90.6275 83.7354 90.7514C83.7187 90.7944 83.7084 90.8382 83.7045 90.8828C83.6966 90.973 83.7153 91.0645 83.7594 91.157C83.7318 91.1738 83.7043 91.1907 83.6769 91.2079C83.2771 95.7876 89.1166 103.387 100.511 104.382C111.646 105.354 120.148 99.3246 120.902 94.7755C120.952 94.6572 120.997 94.5347 121.034 94.4077C121.092 94.325 121.126 94.2391 121.134 94.15C121.137 94.1059 121.135 94.0615 121.126 94.0167C121.148 93.8945 121.165 93.7686 121.176 93.639C120.192 86.3897 113.482 84.9572 108.048 83.797C104.008 82.9343 100.672 82.2221 100.92 79.3809Z" fill="#FFD8B4"/>
<path d="M83.7471 90.3718L83.1328 90.3181L83.1328 90.3181L83.7471 90.3718ZM100.92 79.3809L101.534 79.4347L101.588 78.8203L100.974 78.7667L100.92 79.3809ZM83.7354 90.7514L84.3102 90.9745L84.3551 90.8586L84.3517 90.7345L83.7354 90.7514ZM83.7045 90.8828L83.0902 90.8291L83.7045 90.8828ZM83.7594 91.157L84.0802 91.6836L84.5553 91.3942L84.316 90.8919L83.7594 91.157ZM83.6769 91.2079L83.3507 90.6846L83.0894 90.8474L83.0627 91.1541L83.6769 91.2079ZM100.511 104.382L100.564 103.767L100.564 103.767L100.511 104.382ZM120.902 94.7755L120.335 94.533L120.306 94.6013L120.294 94.6746L120.902 94.7755ZM121.034 94.4077L120.53 94.0525L120.471 94.1355L120.443 94.233L121.034 94.4077ZM121.134 94.15L121.748 94.2037L121.748 94.2037L121.134 94.15ZM121.126 94.0167L120.519 93.9074L120.499 94.0212L120.521 94.1348L121.126 94.0167ZM121.176 93.639L121.79 93.6927L121.796 93.6242L121.787 93.5561L121.176 93.639ZM108.048 83.797L107.92 84.4L108.048 83.797ZM84.3613 90.4255C84.4437 89.4811 84.9159 88.3005 85.7709 87.0527C86.6202 85.8133 87.8217 84.5457 89.305 83.4292C92.2726 81.1954 96.3233 79.5986 100.867 79.9952L100.974 78.7667C96.0721 78.3388 91.7261 80.0632 88.5633 82.4439C86.9814 83.6346 85.6842 84.9976 84.7537 86.3555C83.829 87.7049 83.2402 89.0883 83.1328 90.3181L84.3613 90.4255ZM84.3517 90.7345C84.3489 90.6349 84.352 90.532 84.3613 90.4255L83.1328 90.3181C83.1196 90.4699 83.1149 90.62 83.1191 90.7684L84.3517 90.7345ZM83.1605 90.5284C83.1237 90.6235 83.0994 90.7242 83.0902 90.8291L84.3187 90.9366C84.3173 90.9523 84.3137 90.9654 84.3102 90.9745L83.1605 90.5284ZM83.0902 90.8291C83.0714 91.045 83.1189 91.2461 83.2028 91.4222L84.316 90.8919C84.3133 90.8863 84.315 90.8884 84.3169 90.8975C84.3188 90.907 84.3201 90.9206 84.3187 90.9366L83.0902 90.8291ZM83.4386 90.6304C83.4092 90.6483 83.3799 90.6664 83.3507 90.6846L84.0031 91.7311C84.0287 91.7151 84.0544 91.6993 84.0802 91.6836L83.4386 90.6304ZM83.0627 91.1541C82.8401 93.7041 84.3397 96.9231 87.2546 99.5938C90.1936 102.287 94.6314 104.487 100.457 104.996L100.564 103.767C94.9958 103.281 90.8168 101.185 88.0875 98.6846C85.3341 96.1619 84.1139 93.2913 84.2911 91.2616L83.0627 91.1541ZM100.457 104.996C106.147 105.493 111.177 104.202 114.893 102.191C116.75 101.186 118.29 99.9955 119.421 98.7462C120.546 97.5027 121.296 96.1686 121.51 94.8764L120.294 94.6746C120.131 95.657 119.535 96.7824 118.507 97.9185C117.483 99.0486 116.06 100.157 114.306 101.107C110.798 103.005 106.009 104.243 100.564 103.767L100.457 104.996ZM120.443 94.233C120.412 94.3375 120.376 94.4374 120.335 94.533L121.469 95.018C121.529 94.8771 121.581 94.7319 121.625 94.5824L120.443 94.233ZM121.538 94.7628C121.649 94.6051 121.729 94.417 121.748 94.2037L120.519 94.0963C120.521 94.0806 120.524 94.0675 120.528 94.0584C120.531 94.0498 120.533 94.0478 120.53 94.0525L121.538 94.7628ZM121.748 94.2037C121.757 94.1 121.751 93.9977 121.731 93.8986L120.521 94.1348C120.519 94.1252 120.518 94.1118 120.519 94.0963L121.748 94.2037ZM120.562 93.5853C120.552 93.6971 120.538 93.8044 120.519 93.9074L121.733 94.1261C121.758 93.9847 121.778 93.8402 121.79 93.6927L120.562 93.5853ZM107.92 84.4C110.657 84.9843 113.594 85.6168 115.976 86.9706C118.317 88.301 120.103 90.3179 120.565 93.7219L121.787 93.5561C121.265 89.7108 119.204 87.3868 116.585 85.8986C114.008 84.4338 110.874 83.7699 108.177 83.194L107.92 84.4ZM100.306 79.3272C100.232 80.1712 100.426 80.8966 100.858 81.5054C101.281 82.0993 101.899 82.5387 102.605 82.8845C103.996 83.5666 105.928 83.9747 107.92 84.4L108.177 83.194C106.128 82.7566 104.371 82.3772 103.147 81.7772C102.545 81.482 102.123 81.1567 101.864 80.7911C101.614 80.4403 101.484 80.0113 101.534 79.4347L100.306 79.3272Z" fill="black" mask="url(#path-14-inside-1)"/>
<path d="M123.004 87.8127C122.989 87.9923 122.882 88.1936 122.621 88.4114C122.358 88.6298 121.965 88.843 121.437 89.0421C120.383 89.4397 118.86 89.756 116.969 89.9712C113.192 90.4011 108.01 90.4209 102.321 89.9243C96.6331 89.4277 91.5328 88.5104 87.8871 87.4325C86.0618 86.8928 84.617 86.3175 83.6476 85.7432C83.1623 85.4557 82.8117 85.1775 82.5914 84.917C82.3717 84.6572 82.3017 84.4405 82.3173 84.2609C82.333 84.0812 82.4395 83.8799 82.7009 83.6622C82.9631 83.4438 83.3565 83.2305 83.8844 83.0314C84.9385 82.6339 86.4612 82.3176 88.3524 82.1023C92.1297 81.6724 97.3118 81.6527 103 82.1492C108.688 82.6458 113.789 83.5632 117.434 84.641C119.26 85.1807 120.705 85.7561 121.674 86.3303C122.159 86.6178 122.51 86.896 122.73 87.1565C122.95 87.4163 123.02 87.633 123.004 87.8127Z" stroke="black" stroke-width="0.616558"/>
<path d="M122.932 88.455C122.077 98.2562 112.282 105.407 101.055 104.427C89.8286 103.447 81.421 94.7073 82.2766 84.9062" stroke="black" stroke-width="0.616558"/>
<path d="M102.334 83.0814C102.238 83.7905 100.22 84.0296 97.3386 83.6415C94.4575 83.2533 91.1894 82.6913 91.285 81.9822C92.2133 81.3947 94.3526 80.4475 97.2338 80.8356C100.115 81.2238 101.369 81.1538 102.334 83.0814Z" fill="#FFD8B4"/>
<g style="mix-blend-mode:darken">
<path fill-rule="evenodd" clip-rule="evenodd" d="M101.411 104.133C112.637 105.113 122.394 98.3958 123.203 89.1292C122.779 89.2095 122.369 89.289 121.968 89.3667C117.369 90.2582 113.945 90.9221 103.618 90.0206C93.2252 89.1135 88.0807 87.4106 83.6125 85.9317C83.2538 85.813 82.8996 85.6957 82.5473 85.5804C81.7384 94.847 90.1838 103.153 101.411 104.133Z" fill="#F0F0F0"/>
</g>
<path fill-rule="evenodd" clip-rule="evenodd" d="M109.191 53.7246C109.172 59.1724 104.765 63.5864 99.3199 63.616C104.777 63.6636 109.191 70.756 109.191 79.4981C109.191 80.1706 109.165 80.8333 109.114 81.4839H109.268C109.217 80.8333 109.191 80.1706 109.191 79.4981C109.191 70.7586 113.603 63.6678 119.057 63.616C113.615 63.5838 109.21 59.1708 109.191 53.7246Z" fill="white"/>
<path fill-rule="evenodd" clip-rule="evenodd" d="M86.0773 36.8283C86.0697 39.9506 83.5394 42.4801 80.4167 42.4864C83.539 42.4972 86.0689 46.5441 86.0765 51.5394C86.0841 46.5474 88.6106 42.5025 91.73 42.4864C88.611 42.4759 86.0849 39.948 86.0773 36.8283ZM86.1202 52.6951C86.0919 52.3314 86.0771 51.9609 86.0765 51.5852C86.0759 51.9609 86.061 52.3314 86.0327 52.6951H86.1202Z" fill="white"/>
<path fill-rule="evenodd" clip-rule="evenodd" d="M58.5662 101.619C60.9153 101.618 62.8194 99.714 62.8194 97.3648V97.3636H62.8196L62.8196 97.3656C62.8196 99.701 64.7013 101.597 67.0313 101.62C64.7142 101.656 62.8405 104.657 62.8202 108.365C62.7999 104.634 60.9031 101.619 58.5662 101.619H58.5662V101.619ZM62.8202 108.487C62.8188 108.754 62.8077 109.017 62.7876 109.275H62.8529C62.8327 109.017 62.8217 108.754 62.8202 108.487Z" fill="white"/>
<circle cx="89.5964" cy="101.507" r="3.10813" transform="rotate(-150.853 89.5964 101.507)" fill="white" fill-opacity="0.25"/>
<g filter="url(#filter2_d)">
<ellipse cx="31.1978" cy="32.1194" rx="3.40336" ry="3.40336" fill="#E11414"/>
</g>
<g filter="url(#filter3_d)">
<ellipse cx="33.2538" cy="30.6292" rx="2.48162" ry="2.48162" fill="#EC3838"/>
</g>
<defs>
<filter id="filter0_d" x="17.7508" y="17.229" width="75.9536" height="88.3412" filterUnits="userSpaceOnUse" color-interpolation-filters="sRGB">
<feFlood flood-opacity="0" result="BackgroundImageFix"/>
<feColorMatrix in="SourceAlpha" type="matrix" values="0 0 0 0 0 0 0 0 0 0 0 0 0 0 0 0 0 0 127 0"/>
<feOffset dy="5.08"/>
<feGaussianBlur stdDeviation="2.54"/>
<feColorMatrix type="matrix" values="0 0 0 0 0 0 0 0 0 0 0 0 0 0 0 0 0 0 0.25 0"/>
<feBlend mode="normal" in2="BackgroundImageFix" result="effect1_dropShadow"/>
<feBlend mode="normal" in="SourceGraphic" in2="effect1_dropShadow" result="shape"/>
</filter>
<filter id="filter1_d" x="77.3682" y="75.3781" width="9.98485" height="15.9407" filterUnits="userSpaceOnUse" color-interpolation-filters="sRGB">
<feFlood flood-opacity="0" result="BackgroundImageFix"/>
<feColorMatrix in="SourceAlpha" type="matrix" values="0 0 0 0 0 0 0 0 0 0 0 0 0 0 0 0 0 0 127 0"/>
<feOffset dx="-1.27"/>
<feGaussianBlur stdDeviation="0.635"/>
<feColorMatrix type="matrix" values="0 0 0 0 0 0 0 0 0 0 0 0 0 0 0 0 0 0 0.1 0"/>
<feBlend mode="normal" in2="BackgroundImageFix" result="effect1_dropShadow"/>
<feBlend mode="normal" in="SourceGraphic" in2="effect1_dropShadow" result="shape"/>
</filter>
<filter id="filter2_d" x="21.4444" y="26.176" width="14.4267" height="14.4267" filterUnits="userSpaceOnUse" color-interpolation-filters="sRGB">
<feFlood flood-opacity="0" result="BackgroundImageFix"/>
<feColorMatrix in="SourceAlpha" type="matrix" values="0 0 0 0 0 0 0 0 0 0 0 0 0 0 0 0 0 0 127 0"/>
<feOffset dx="-2.54" dy="1.27"/>
<feGaussianBlur stdDeviation="1.905"/>
<feColorMatrix type="matrix" values="0 0 0 0 0 0 0 0 0 0 0 0 0 0 0 0 0 0 0.25 0"/>
<feBlend mode="normal" in2="BackgroundImageFix" result="effect1_dropShadow"/>
<feBlend mode="normal" in="SourceGraphic" in2="effect1_dropShadow" result="shape"/>
</filter>
<filter id="filter3_d" x="23.1522" y="28.1476" width="15.1232" height="15.1232" filterUnits="userSpaceOnUse" color-interpolation-filters="sRGB">
<feFlood flood-opacity="0" result="BackgroundImageFix"/>
<feColorMatrix in="SourceAlpha" type="matrix" values="0 0 0 0 0 0 0 0 0 0 0 0 0 0 0 0 0 0 127 0"/>
<feOffset dx="-2.54" dy="5.08"/>
<feGaussianBlur stdDeviation="2.54"/>
<feColorMatrix type="matrix" values="0 0 0 0 0 0 0 0 0 0 0 0 0 0 0 0 0 0 0.25 0"/>
<feBlend mode="normal" in2="BackgroundImageFix" result="effect1_dropShadow"/>
<feBlend mode="normal" in="SourceGraphic" in2="effect1_dropShadow" result="shape"/>
</filter>
</defs>
</svg>
